<svg width="211" height="211" viewBox="0 0 211 211" fill="none" xmlns="http://www.w3.org/2000/svg">
<g clip-path="url(#clip0_150_460)">
<path d="M149.2 0H61.7995L0 61.7995V149.2L61.7995 211H149.2L211 149.2V61.7995L149.2 0Z" fill="#F6B067"/>
<g clip-path="url(#clip1_150_460)">
<path d="M133.387 66H78.6133C71.0949 66 65 72.0889 65 79.6V132.272C65 139.783 71.0949 145.872 78.6133 145.872H133.387C140.905 145.872 147 139.783 147 132.272V79.6C147 72.0889 140.905 66 133.387 66Z" fill="#470137"/>
<path d="M108.107 87.0049L97.8754 103.876L108.822 121.791C108.893 121.917 108.912 122.064 108.877 122.204C108.86 122.263 108.824 122.278 108.768 122.28L108.706 122.279L108.63 122.277C108.589 122.277 108.543 122.279 108.492 122.287H100.6L100.445 122.285C100.019 122.274 99.7127 122.213 99.526 121.901C98.7957 120.48 98.0622 119.06 97.3254 117.642C96.6664 116.378 95.9894 115.122 95.2947 113.877L94.9878 113.328C94.1568 111.853 93.3408 110.369 92.54 108.877H92.4849C91.7453 110.354 90.9843 111.819 90.202 113.273C89.4131 114.739 88.6338 116.196 87.8641 117.642C87.0939 119.09 86.3054 120.528 85.4989 121.956C85.3691 122.247 85.1536 122.308 84.8534 122.318L84.7285 122.32H77.1925L77.1599 122.321L77.0522 122.331C76.9923 122.334 76.9565 122.321 76.9449 122.231C76.9243 122.097 76.9537 121.96 77.0276 121.846L87.644 104.426L77.3024 86.9505C77.1925 86.8045 77.1743 86.6855 77.2473 86.5933C77.2879 86.5464 77.3389 86.5095 77.3962 86.4856C77.4535 86.4618 77.5156 86.4515 77.5775 86.4557H85.3336C85.5027 86.4465 85.6718 86.4747 85.8288 86.5383C85.9601 86.6129 86.0732 86.7162 86.1587 86.8407C86.8189 88.3063 87.5524 89.7719 88.3593 91.2369C89.1599 92.6926 89.9759 94.1398 90.8071 95.5783C91.6256 96.9945 92.3871 98.4428 93.09 99.9197H93.145C93.8653 98.4432 94.608 96.9776 95.3728 95.5236C96.124 94.0948 96.8943 92.6564 97.6829 91.2093C98.4615 89.7809 99.2225 88.3429 99.9658 86.8957C100.008 86.7601 100.084 86.6372 100.186 86.5383C100.322 86.4696 100.474 86.4409 100.626 86.4557H107.832C107.898 86.4392 107.968 86.4447 108.031 86.4712C108.094 86.4978 108.146 86.544 108.181 86.603C108.215 86.662 108.229 86.7305 108.221 86.7982C108.213 86.866 108.183 86.9293 108.136 86.9786L108.107 87.0055L108.107 87.0049ZM124.273 122.996L123.894 123C121.362 123.039 118.853 122.513 116.55 121.462C114.405 120.47 112.611 118.85 111.407 116.818C110.193 114.803 109.569 112.293 109.538 109.287L109.537 109.042C109.516 106.52 110.161 104.037 111.407 101.843C112.654 99.6717 114.472 97.8827 116.664 96.6698L116.853 96.5674C119.236 95.2484 122.115 94.5889 125.489 94.5889L125.637 94.5905L125.805 94.5959L125.994 94.6042L126.204 94.6164L126.557 94.6413L126.957 94.6733L127.249 94.6989V83.8727C127.249 83.6167 127.36 83.4881 127.579 83.4881H134.511C134.555 83.4816 134.601 83.4857 134.644 83.5C134.687 83.5143 134.726 83.5384 134.758 83.5704C134.79 83.6024 134.814 83.6414 134.828 83.6843C134.843 83.7272 134.847 83.7729 134.84 83.8177V116.296C134.84 116.841 134.862 117.429 134.904 118.057L135.006 119.483L135.061 120.308C135.068 120.422 135.04 120.535 134.981 120.633C134.922 120.732 134.835 120.81 134.731 120.857C132.942 121.602 131.08 122.155 129.175 122.506C127.557 122.804 125.918 122.968 124.273 122.996ZM127.249 116.186V101.183C126.952 101.103 126.649 101.048 126.342 101.019C125.967 100.981 125.591 100.963 125.214 100.964C123.879 100.95 122.56 101.252 121.364 101.843C120.198 102.422 119.203 103.293 118.476 104.371C117.75 105.432 117.374 106.818 117.349 108.528L117.348 108.712C117.321 109.91 117.517 111.103 117.925 112.229C118.258 113.137 118.784 113.962 119.466 114.647C120.119 115.278 120.91 115.748 121.776 116.021C122.691 116.317 123.647 116.466 124.609 116.461C125.122 116.461 125.599 116.443 126.039 116.406C126.39 116.379 126.739 116.322 127.08 116.233L127.249 116.186Z" fill="#FF61F6"/>
</g>
</g>
<defs>
<clipPath id="clip0_150_460">
<rect width="211" height="211" fill="white"/>
</clipPath>
<clipPath id="clip1_150_460">
<rect width="82" height="80" fill="white" transform="translate(65 66)"/>
</clipPath>
</defs>
</svg>
