<svg width="211" height="211" viewBox="0 0 211 211" fill="none" xmlns="http://www.w3.org/2000/svg">
<rect y="1" width="210" height="210" fill="#F59E43" fill-opacity="0.8"/>
<path d="M210 41H0V71.2053C0 71.2053 27.5 82 48.5 82C69.5 82 116 55.4403 146 55.4403C176 55.4403 210 71.2053 210 71.2053V41Z" fill="#F9F9F9"/>
<rect width="211" height="41" fill="#F9F9F9"/>
<g clip-path="url(#clip0_14_164)">
<path d="M132.387 66H77.6133C70.0949 66 64 72.0889 64 79.6V132.272C64 139.783 70.0949 145.872 77.6133 145.872H132.387C139.905 145.872 146 139.783 146 132.272V79.6C146 72.0889 139.905 66 132.387 66Z" fill="#470137"/>
<path d="M107.107 87.0049L96.8752 103.876L107.822 121.791C107.892 121.917 107.912 122.064 107.877 122.204C107.86 122.263 107.823 122.278 107.767 122.28L107.705 122.279L107.63 122.277C107.589 122.277 107.543 122.279 107.492 122.287H99.5994L99.4444 122.285C99.019 122.274 98.7125 122.213 98.5258 121.901C97.7955 120.48 97.062 119.06 96.3252 117.642C95.6662 116.378 94.9892 115.122 94.2944 113.877L93.9876 113.328C93.1566 111.853 92.3406 110.369 91.5397 108.877H91.4846C90.745 110.354 89.984 111.819 89.2018 113.273C88.4128 114.739 87.6335 116.196 86.8638 117.642C86.0937 119.09 85.3052 120.528 84.4986 121.956C84.3689 122.247 84.1533 122.308 83.8532 122.318L83.7283 122.32H76.1923L76.1596 122.321L76.052 122.331C75.9921 122.334 75.9562 122.321 75.9447 122.231C75.924 122.097 75.9534 121.96 76.0273 121.846L86.6438 104.426L76.3022 86.9505C76.1923 86.8045 76.174 86.6855 76.2471 86.5933C76.2877 86.5464 76.3386 86.5095 76.3959 86.4856C76.4533 86.4618 76.5153 86.4515 76.5773 86.4557H84.3333C84.5025 86.4465 84.6716 86.4747 84.8285 86.5383C84.9599 86.6129 85.0729 86.7162 85.1585 86.8407C85.8186 88.3063 86.5522 89.7719 87.359 91.2369C88.1596 92.6926 88.9756 94.1398 89.8068 95.5783C90.6253 96.9945 91.3869 98.4428 92.0897 99.9197H92.1448C92.8651 98.4432 93.6077 96.9776 94.3726 95.5236C95.1237 94.0948 95.8941 92.6564 96.6827 91.2093C97.4613 89.7809 98.2223 88.3429 98.9655 86.8957C99.0078 86.7601 99.0834 86.6372 99.1856 86.5383C99.3215 86.4696 99.4741 86.4409 99.6257 86.4557H106.832C106.898 86.4392 106.968 86.4447 107.031 86.4712C107.094 86.4978 107.146 86.544 107.18 86.603C107.215 86.662 107.229 86.7305 107.221 86.7982C107.213 86.866 107.183 86.9293 107.136 86.9786L107.107 87.0055L107.107 87.0049ZM123.273 122.996L122.894 123C120.362 123.039 117.853 122.513 115.55 121.462C113.405 120.47 111.611 118.85 110.407 116.818C109.192 114.803 108.569 112.293 108.538 109.287L108.536 109.042C108.516 106.52 109.161 104.037 110.407 101.843C111.654 99.6717 113.472 97.8827 115.664 96.6698L115.853 96.5674C118.236 95.2484 121.115 94.5889 124.489 94.5889L124.636 94.5905L124.805 94.5959L124.994 94.6042L125.204 94.6164L125.557 94.6413L125.957 94.6733L126.249 94.6989V83.8727C126.249 83.6167 126.359 83.4881 126.579 83.4881H133.51C133.555 83.4816 133.601 83.4857 133.644 83.5C133.687 83.5143 133.726 83.5384 133.758 83.5704C133.79 83.6024 133.814 83.6414 133.828 83.6843C133.843 83.7272 133.847 83.7729 133.84 83.8177V116.296C133.84 116.841 133.861 117.429 133.904 118.057L134.006 119.483L134.061 120.308C134.067 120.422 134.039 120.535 133.981 120.633C133.922 120.732 133.834 120.81 133.73 120.857C131.942 121.602 130.08 122.155 128.175 122.506C126.557 122.804 124.918 122.968 123.273 122.996ZM126.249 116.186V101.183C125.952 101.103 125.648 101.048 125.342 101.019C124.967 100.981 124.59 100.963 124.214 100.964C122.879 100.95 121.56 101.252 120.363 101.843C119.198 102.422 118.203 103.293 117.475 104.371C116.749 105.432 116.374 106.818 116.349 108.528L116.348 108.712C116.321 109.91 116.517 111.103 116.925 112.229C117.258 113.137 117.783 113.962 118.466 114.647C119.119 115.278 119.91 115.748 120.776 116.021C121.691 116.317 122.647 116.466 123.609 116.461C124.122 116.461 124.599 116.443 125.039 116.406C125.39 116.379 125.738 116.322 126.079 116.233L126.249 116.186Z" fill="#FF61F6"/>
</g>
<defs>
<clipPath id="clip0_14_164">
<rect width="82" height="80" fill="white" transform="translate(64 66)"/>
</clipPath>
</defs>
</svg>
