<svg width="211" height="211" viewBox="0 0 211 211" fill="none" xmlns="http://www.w3.org/2000/svg">
<rect x="210" y="211" width="210" height="210" transform="rotate(-180 210 211)" fill="#DE611E" fill-opacity="0.8"/>
<path d="M210 96H0V126.205C0 126.205 27.5 137 48.5 137C69.5 137 116 110.44 146 110.44C176 110.44 210 126.205 210 126.205V96Z" fill="#F9F9F9"/>
<rect width="211" height="97" fill="#F9F9F9"/>
<path d="M80.5704 135.703L75.0256 71.125H135.974L130.422 135.692L105.463 142.875L80.5704 135.703Z" fill="#1572B6"/>
<path d="M105.5 137.386L125.67 131.582L130.415 76.4064H105.5V137.386Z" fill="#33A9DC"/>
<path d="M105.5 99.802H115.597L116.293 91.6917H105.5V83.771H124.633L124.45 85.8953L122.576 107.723H105.5V99.802Z" fill="white"/>
<path d="M105.547 120.371L105.512 120.381L97.0149 117.998L96.4718 111.682H88.8113L89.8802 124.117L105.51 128.622L105.547 128.612V120.371Z" fill="#EBEBEB"/>
<path d="M114.948 107.387L114.03 117.993L105.52 120.376V128.617L121.162 124.118L121.278 122.78L122.604 107.387H114.948Z" fill="white"/>
<path d="M105.527 83.771V91.6917H87.0955L86.9424 89.9107L86.5943 85.8953L86.4116 83.771H105.527ZM105.5 99.802V107.723H97.1087L96.9557 105.942L96.61 101.926L96.4273 99.802H105.5Z" fill="#EBEBEB"/>
</svg>
