<svg width="211" height="211" viewBox="0 0 211 211" fill="none" xmlns="http://www.w3.org/2000/svg">
<path d="M149.2 0H61.7995L0 61.7995V149.2L61.7995 211H149.2L211 149.2V61.7995L149.2 0Z" fill="#E37F4A"/>
<path d="M80.5702 136.703L75.0254 72.125H135.974L130.422 136.692L105.463 143.875L80.5702 136.703Z" fill="#1572B6"/>
<path d="M105.5 138.386L125.67 132.582L130.415 77.4064H105.5V138.386Z" fill="#33A9DC"/>
<path d="M105.5 100.802H115.597L116.293 92.6917H105.5V84.771H124.633L124.45 86.8953L122.576 108.723H105.5V100.802Z" fill="white"/>
<path d="M105.547 121.371L105.513 121.381L97.0152 118.998L96.4721 112.682H88.8115L89.8805 125.117L105.51 129.622L105.547 129.612V121.371Z" fill="#EBEBEB"/>
<path d="M114.948 108.387L114.029 118.993L105.52 121.376V129.617L121.162 125.118L121.278 123.78L122.603 108.387H114.948Z" fill="white"/>
<path d="M105.528 84.771V92.6917H87.096L86.9429 90.9107L86.5948 86.8953L86.4121 84.771H105.528ZM105.5 100.802V108.723H97.1092L96.9561 106.942L96.6105 102.926L96.4278 100.802H105.5Z" fill="#EBEBEB"/>
</svg>
