<svg width="1440" height="814" viewBox="0 0 1440 814" fill="none" xmlns="http://www.w3.org/2000/svg">
<g filter="url(#filter0_ddd_39_77)">
<path d="M457 422C227.523 422 0 551.964 0 551.964V804H1442V457.309C1442 457.309 1233.07 603.047 1031.65 603.047C830.227 603.047 686.477 422 457 422Z" fill="#007A7A"/>
</g>
<path d="M596.807 62.512C593.437 62.512 590.173 62 587.015 60.976C583.901 59.9093 581.447 58.544 579.655 56.88L582.023 51.888C583.73 53.424 585.906 54.6827 588.551 55.664C591.239 56.6027 593.991 57.072 596.807 57.072C600.519 57.072 603.293 56.4533 605.127 55.216C606.962 53.936 607.879 52.2507 607.879 50.16C607.879 48.624 607.367 47.3867 606.343 46.448C605.362 45.4667 604.125 44.72 602.631 44.208C601.181 43.696 599.111 43.12 596.423 42.48C593.053 41.6693 590.322 40.8587 588.231 40.048C586.183 39.2373 584.413 38 582.919 36.336C581.469 34.6293 580.743 32.3467 580.743 29.488C580.743 27.0987 581.362 24.944 582.599 23.024C583.879 21.104 585.799 19.568 588.359 18.416C590.919 17.264 594.098 16.688 597.895 16.688C600.541 16.688 603.143 17.0293 605.703 17.712C608.263 18.3947 610.461 19.376 612.295 20.656L610.183 25.776C608.306 24.5813 606.301 23.6853 604.167 23.088C602.034 22.448 599.943 22.128 597.895 22.128C594.269 22.128 591.538 22.7893 589.703 24.112C587.911 25.4347 587.015 27.1413 587.015 29.232C587.015 30.768 587.527 32.0267 588.551 33.008C589.575 33.9467 590.834 34.6933 592.327 35.248C593.863 35.76 595.933 36.3147 598.535 36.912C601.906 37.7227 604.615 38.5333 606.663 39.344C608.711 40.1547 610.461 41.392 611.911 43.056C613.405 44.72 614.151 46.96 614.151 49.776C614.151 52.1227 613.511 54.2773 612.231 56.24C610.951 58.16 609.01 59.696 606.407 60.848C603.805 61.9573 600.605 62.512 596.807 62.512ZM654.221 28.08V62H648.397V56.88C647.16 58.6293 645.517 59.9947 643.469 60.976C641.464 61.9147 639.267 62.384 636.877 62.384C632.355 62.384 628.792 61.1467 626.189 58.672C623.587 56.1547 622.285 52.464 622.285 47.6V28.08H628.429V46.896C628.429 50.1813 629.219 52.6773 630.797 54.384C632.376 56.048 634.637 56.88 637.581 56.88C640.824 56.88 643.384 55.8987 645.261 53.936C647.139 51.9733 648.077 49.2 648.077 45.616V28.08H654.221ZM715.105 14.512V62H709.217V56.624C707.852 58.5013 706.124 59.9307 704.033 60.912C701.943 61.8933 699.639 62.384 697.121 62.384C693.836 62.384 690.892 61.6587 688.289 60.208C685.687 58.7573 683.639 56.7307 682.145 54.128C680.695 51.4827 679.969 48.4533 679.969 45.04C679.969 41.6267 680.695 38.6187 682.145 36.016C683.639 33.4133 685.687 31.3867 688.289 29.936C690.892 28.4853 693.836 27.76 697.121 27.76C699.553 27.76 701.793 28.2293 703.841 29.168C705.889 30.064 707.596 31.408 708.961 33.2V14.512H715.105ZM697.633 57.008C699.767 57.008 701.708 56.5173 703.457 55.536C705.207 54.512 706.572 53.104 707.553 51.312C708.535 49.4773 709.025 47.3867 709.025 45.04C709.025 42.6933 708.535 40.624 707.553 38.832C706.572 36.9973 705.207 35.5893 703.457 34.608C701.708 33.6267 699.767 33.136 697.633 33.136C695.457 33.136 693.495 33.6267 691.745 34.608C690.039 35.5893 688.673 36.9973 687.649 38.832C686.668 40.624 686.177 42.6933 686.177 45.04C686.177 47.3867 686.668 49.4773 687.649 51.312C688.673 53.104 690.039 54.512 691.745 55.536C693.495 56.5173 695.457 57.008 697.633 57.008ZM726.73 28.08H732.874V62H726.73V28.08ZM729.802 21.552C728.608 21.552 727.605 21.168 726.794 20.4C726.026 19.632 725.642 18.6933 725.642 17.584C725.642 16.4747 726.026 15.536 726.794 14.768C727.605 13.9573 728.608 13.552 729.802 13.552C730.997 13.552 731.978 13.936 732.746 14.704C733.557 15.4293 733.962 16.3467 733.962 17.456C733.962 18.608 733.557 19.5893 732.746 20.4C731.978 21.168 730.997 21.552 729.802 21.552ZM804.225 27.76C808.491 27.76 811.862 28.9973 814.337 31.472C816.854 33.9467 818.113 37.616 818.113 42.48V62H811.969V43.184C811.969 39.8987 811.201 37.424 809.665 35.76C808.171 34.096 806.017 33.264 803.201 33.264C800.086 33.264 797.611 34.2453 795.777 36.208C793.942 38.128 793.025 40.9013 793.025 44.528V62H786.881V43.184C786.881 39.8987 786.113 37.424 784.577 35.76C783.083 34.096 780.929 33.264 778.113 33.264C774.998 33.264 772.523 34.2453 770.689 36.208C768.854 38.128 767.937 40.9013 767.937 44.528V62H761.793V28.08H767.681V33.136C768.918 31.3867 770.539 30.064 772.545 29.168C774.55 28.2293 776.833 27.76 779.393 27.76C782.038 27.76 784.385 28.2933 786.433 29.36C788.481 30.4267 790.059 31.984 791.169 34.032C792.449 32.0693 794.219 30.5333 796.481 29.424C798.785 28.3147 801.366 27.76 804.225 27.76ZM844.901 57.008C848.955 57.008 852.219 55.6427 854.693 52.912L858.021 56.88C856.528 58.672 854.629 60.0373 852.325 60.976C850.064 61.9147 847.525 62.384 844.709 62.384C841.125 62.384 837.947 61.6587 835.173 60.208C832.4 58.7147 830.245 56.6453 828.709 54C827.216 51.3547 826.469 48.368 826.469 45.04C826.469 41.7547 827.195 38.7893 828.645 36.144C830.139 33.4987 832.165 31.4507 834.725 30C837.328 28.5067 840.251 27.76 843.493 27.76C846.565 27.76 849.36 28.464 851.877 29.872C854.395 31.2373 856.4 33.1787 857.893 35.696C859.387 38.2133 860.155 41.1147 860.197 44.4L833.253 49.648C834.107 51.9947 835.536 53.808 837.541 55.088C839.589 56.368 842.043 57.008 844.901 57.008ZM843.493 32.944C841.36 32.944 839.44 33.4347 837.733 34.416C836.069 35.3973 834.768 36.784 833.829 38.576C832.891 40.3253 832.421 42.3733 832.421 44.72V45.36L854.117 41.264C853.563 38.7893 852.325 36.784 850.405 35.248C848.485 33.712 846.181 32.944 843.493 32.944Z" fill="#DE611E"/>
<defs>
<filter id="filter0_ddd_39_77" x="-10" y="272" width="1602" height="542" filterUnits="userSpaceOnUse" color-interpolation-filters="sRGB">
<feFlood flood-opacity="0" result="BackgroundImageFix"/>
<feColorMatrix in="SourceAlpha" type="matrix" values="0 0 0 0 0 0 0 0 0 0 0 0 0 0 0 0 0 0 127 0" result="hardAlpha"/>
<feOffset dx="24" dy="-24"/>
<feGaussianBlur stdDeviation="17"/>
<feColorMatrix type="matrix" values="0 0 0 0 0 0 0 0 0 0 0 0 0 0 0 0 0 0 0.09 0"/>
<feBlend mode="normal" in2="BackgroundImageFix" result="effect1_dropShadow_39_77"/>
<feColorMatrix in="SourceAlpha" type="matrix" values="0 0 0 0 0 0 0 0 0 0 0 0 0 0 0 0 0 0 127 0" result="hardAlpha"/>
<feOffset dx="54" dy="-54"/>
<feGaussianBlur stdDeviation="23"/>
<feColorMatrix type="matrix" values="0 0 0 0 0 0 0 0 0 0 0 0 0 0 0 0 0 0 0.05 0"/>
<feBlend mode="normal" in2="effect1_dropShadow_39_77" result="effect2_dropShadow_39_77"/>
<feColorMatrix in="SourceAlpha" type="matrix" values="0 0 0 0 0 0 0 0 0 0 0 0 0 0 0 0 0 0 127 0" result="hardAlpha"/>
<feOffset dx="96" dy="-96"/>
<feGaussianBlur stdDeviation="27"/>
<feColorMatrix type="matrix" values="0 0 0 0 0 0 0 0 0 0 0 0 0 0 0 0 0 0 0.01 0"/>
<feBlend mode="normal" in2="effect2_dropShadow_39_77" result="effect3_dropShadow_39_77"/>
<feBlend mode="normal" in="SourceGraphic" in2="effect3_dropShadow_39_77" result="shape"/>
</filter>
</defs>
</svg>
