<svg width="211" height="211" viewBox="0 0 211 211" fill="none" xmlns="http://www.w3.org/2000/svg">
<g clip-path="url(#clip0_150_448)">
<path d="M149.2 0H61.7995L0 61.7995V149.2L61.7995 211H149.2L211 149.2V61.7995L149.2 0Z" fill="#326479"/>
<g clip-path="url(#clip1_150_448)">
<path d="M94.75 138C100.684 138 105.5 133.221 105.5 127.333V116.667H94.75C88.816 116.667 84 121.445 84 127.333C84 133.221 88.816 138 94.75 138Z" fill="#0ACF83"/>
<path d="M84 106C84 100.112 88.816 95.3334 94.75 95.3334H105.5V116.667H94.75C88.816 116.667 84 111.888 84 106Z" fill="#A259FF"/>
<path d="M84 84.6667C84 78.7787 88.816 74 94.75 74H105.5V95.3333H94.75C88.816 95.3333 84 90.5547 84 84.6667Z" fill="#F24E1E"/>
<path d="M105.5 74H116.25C122.184 74 127 78.7787 127 84.6667C127 90.5547 122.184 95.3333 116.25 95.3333H105.5V74Z" fill="#FF7262"/>
<path d="M127 106C127 111.888 122.184 116.667 116.25 116.667C110.316 116.667 105.5 111.888 105.5 106C105.5 100.112 110.316 95.3334 116.25 95.3334C122.184 95.3334 127 100.112 127 106Z" fill="#1ABCFE"/>
</g>
</g>
<defs>
<clipPath id="clip0_150_448">
<rect width="211" height="211" fill="white"/>
</clipPath>
<clipPath id="clip1_150_448">
<rect width="43" height="64" fill="white" transform="translate(84 74)"/>
</clipPath>
</defs>
</svg>
