<svg width="210" height="210" viewBox="0 0 210 210" fill="none" xmlns="http://www.w3.org/2000/svg">
<rect width="210" height="210" fill="#003F59" fill-opacity="0.8"/>
<g clip-path="url(#clip0_14_161)">
<path d="M93.75 137C99.684 137 104.5 132.221 104.5 126.333V115.667H93.75C87.816 115.667 83 120.445 83 126.333C83 132.221 87.816 137 93.75 137Z" fill="#0ACF83"/>
<path d="M83 105C83 99.112 87.816 94.3334 93.75 94.3334H104.5V115.667H93.75C87.816 115.667 83 110.888 83 105Z" fill="#A259FF"/>
<path d="M83 83.6667C83 77.7787 87.816 73 93.75 73H104.5V94.3333H93.75C87.816 94.3333 83 89.5547 83 83.6667Z" fill="#F24E1E"/>
<path d="M104.5 73H115.25C121.184 73 126 77.7787 126 83.6667C126 89.5547 121.184 94.3333 115.25 94.3333H104.5V73Z" fill="#FF7262"/>
<path d="M126 105C126 110.888 121.184 115.667 115.25 115.667C109.316 115.667 104.5 110.888 104.5 105C104.5 99.112 109.316 94.3334 115.25 94.3334C121.184 94.3334 126 99.112 126 105Z" fill="#1ABCFE"/>
</g>
<path d="M210 0H0V27.2584C0 27.2584 27.5 37 48.5 37C69.5 37 116 13.0315 146 13.0315C176 13.0315 210 27.2584 210 27.2584V0Z" fill="#F9F9F9"/>
<defs>
<clipPath id="clip0_14_161">
<rect width="43" height="64" fill="white" transform="translate(83 73)"/>
</clipPath>
</defs>
</svg>
