<svg width="36" height="36" viewBox="0 0 36 36" fill="none" xmlns="http://www.w3.org/2000/svg">
<path d="M8.08312 24.2871C11.9861 24.5531 12.8202 24.4567 12.8202 25.2466C12.8202 26.8537 7.55277 26.8586 7.55277 25.3688C7.55357 24.9597 7.81714 24.6134 8.08312 24.2871ZM10.3291 14.9143C7.73437 14.9143 7.61705 18.4878 10.2688 18.4878C12.8812 18.4878 12.817 14.9143 10.3291 14.9143ZM36 3.85714V32.1429C36 33.1658 35.5936 34.1469 34.8703 34.8703C34.1469 35.5936 33.1658 36 32.1429 36H3.85714C2.83416 36 1.85309 35.5936 1.12973 34.8703C0.406376 34.1469 0 33.1658 0 32.1429L0 3.85714C0 2.83416 0.406376 1.85309 1.12973 1.12973C1.85309 0.406377 2.83416 0 3.85714 0H32.1429C33.1658 0 34.1469 0.406377 34.8703 1.12973C35.5936 1.85309 36 2.83416 36 3.85714ZM17.7589 9.4267C17.7589 10.5911 18.4323 11.2653 19.5959 11.2653C20.7804 11.2653 21.4546 10.5911 21.4546 9.4267C21.4546 8.26232 20.782 7.63393 19.5975 7.63393C18.4339 7.63393 17.7589 8.26393 17.7589 9.4267ZM16.0055 13.0982H12.0238C10.0149 12.5719 5.46991 12.7085 5.46991 16.8549C5.46991 18.3656 6.22527 19.4263 7.22571 19.9173C5.96491 21.0721 5.36786 21.6161 5.36786 22.3875C5.36786 22.9396 5.59205 23.4498 6.26625 23.7343C5.55107 24.4093 5.14125 24.8979 5.14125 25.8171C5.14286 27.4299 6.55152 28.3661 10.2471 28.3661C13.8005 28.3661 15.8617 27.0394 15.8617 24.6913C15.8617 21.7446 13.5932 21.8531 8.24625 21.5269L8.91964 20.4477C10.2857 20.8286 14.8813 20.9483 14.8813 17.0381C14.8813 16.0987 14.4932 15.4454 14.126 14.9754L16.0047 14.8323L16.0055 13.0982ZM22.7829 21.9246L21.7382 21.7816C21.4312 21.7406 21.4112 21.7013 21.4112 21.3726V12.8989H17.1844L16.9602 14.5519C18.2258 14.9979 18.3263 14.9424 18.3263 15.3691V21.375C18.3263 21.8266 18.3013 21.743 16.9602 21.9271V23.539H22.7796L22.7829 21.9246ZM30.8571 22.7411L30.3051 20.9435C27.0161 22.1786 27.2636 19.9462 27.2636 19.5991V14.7198H30.3051V12.6779H27.4267C27.1961 12.6779 27.266 12.8804 27.266 9.57375H25.3229C25.0987 11.7996 24.3844 12.698 22.5908 12.9021V14.7198C24.2357 14.7198 24.1835 14.6515 24.1835 14.9239V20.2733C24.1835 22.5812 25.102 23.5607 27.532 23.5607C28.6931 23.5607 29.9788 23.1726 30.8571 22.7411Z" fill="#F9F9F9"/>
</svg>
