<svg width="211" height="211" viewBox="0 0 211 211" fill="none" xmlns="http://www.w3.org/2000/svg">
<path d="M149.2 0H61.7995L0 61.7995V149.2L61.7995 211H149.2L211 149.2V61.7995L149.2 0Z" fill="#329393"/>
<path d="M80.5707 134.703L75.0234 70.125H135.977L130.422 134.692L105.463 141.875L80.5707 134.703Z" fill="#E44F26"/>
<path d="M105.5 136.386L125.67 130.582L130.415 75.4064H105.5V136.386Z" fill="#F1662A"/>
<path d="M105.5 99.3555H95.4028L94.7066 91.2451H105.5V83.3245H86.3672L86.5499 85.4513L88.4237 107.276H105.5V99.3555ZM105.5 119.925L105.465 119.935L96.968 117.554L96.4249 111.238H88.7643L89.8333 123.671L105.465 128.176L105.5 128.166V119.925Z" fill="#EBEBEB"/>
<path d="M105.473 99.3555V107.276H114.869L113.985 117.549L105.473 119.932V128.173L121.117 123.671L121.231 122.333L123.023 101.482L123.211 99.3555H105.473ZM105.473 83.3245V91.2451H123.904L124.057 89.4668L124.406 85.4513L124.588 83.3245H105.473Z" fill="white"/>
</svg>
