<svg width="211" height="210" viewBox="0 0 211 210" fill="none" xmlns="http://www.w3.org/2000/svg">
<rect x="210" y="210" width="210" height="210" transform="rotate(-180 210 210)" fill="#007A7A" fill-opacity="0.8"/>
<path d="M210 96H0V126.205C0 126.205 27.5 137 48.5 137C69.5 137 116 110.44 146 110.44C176 110.44 210 126.205 210 126.205V96Z" fill="#F9F9F9"/>
<rect width="211" height="97" fill="#F9F9F9"/>
<path d="M79.5705 134.703L74.0232 70.125H134.977L129.422 134.692L104.463 141.875L79.5705 134.703Z" fill="#E44F26"/>
<path d="M104.5 136.386L124.67 130.582L129.415 75.4064H104.5V136.386Z" fill="#F1662A"/>
<path d="M104.5 99.3555H94.4028L93.7066 91.2451H104.5V83.3245H85.3672L85.5499 85.4513L87.4237 107.276H104.5V99.3555ZM104.5 119.925L104.465 119.935L95.968 117.554L95.4249 111.238H87.7643L88.8333 123.671L104.465 128.176L104.5 128.166V119.925Z" fill="#EBEBEB"/>
<path d="M104.473 99.3555V107.276H113.869L112.985 117.549L104.473 119.932V128.173L120.117 123.671L120.231 122.333L122.023 101.482L122.211 99.3555H104.473ZM104.473 83.3245V91.2451H122.905L123.058 89.4668L123.406 85.4513L123.588 83.3245H104.473Z" fill="white"/>
</svg>
