<svg width="211" height="211" viewBox="0 0 211 211" fill="none" xmlns="http://www.w3.org/2000/svg">
<rect y="1" width="210" height="210" fill="#007A7A" fill-opacity="0.8"/>
<path d="M210 41H0V71.2053C0 71.2053 27.5 82 48.5 82C69.5 82 116 55.4403 146 55.4403C176 55.4403 210 71.2053 210 71.2053V41Z" fill="#F9F9F9"/>
<rect width="211" height="41" fill="#F9F9F9"/>
<g clip-path="url(#clip0_14_163)">
<path d="M132.387 66H77.6133C70.0949 66 64 72.0889 64 79.6V132.272C64 139.783 70.0949 145.872 77.6133 145.872H132.387C139.905 145.872 146 139.783 146 132.272V79.6C146 72.0889 139.905 66 132.387 66Z" fill="#330000"/>
<path d="M103.736 113.933H91.0293L88.4437 121.956C88.4085 122.102 88.3233 122.232 88.2028 122.322C88.0823 122.413 87.934 122.458 87.7835 122.451H81.3475C80.9807 122.451 80.8523 122.249 80.9625 121.846L91.9643 90.1923C92.0741 89.8627 92.1843 89.4873 92.2942 89.0659C92.4383 88.3325 92.512 87.5875 92.5142 86.8403C92.5067 86.788 92.5115 86.7347 92.5282 86.6847C92.5449 86.6346 92.5731 86.589 92.6104 86.5517C92.6478 86.5143 92.6933 86.4862 92.7435 86.4695C92.7936 86.4527 92.8469 86.4479 92.8992 86.4553H101.646C101.902 86.4553 102.049 86.5472 102.086 86.7305L114.573 121.901C114.683 122.268 114.573 122.451 114.243 122.451H107.091C106.969 122.464 106.845 122.433 106.744 122.362C106.643 122.291 106.571 122.186 106.541 122.066L103.736 113.933ZM93.0094 107.009H101.701L101.577 106.6L101.378 105.953L101.236 105.499L101.01 104.783L100.528 103.277L100.105 101.941L99.005 98.463C98.7313 97.5983 98.4687 96.7302 98.2171 95.8589L98.0159 95.1517L97.7808 94.3155L97.4221 93.0195L97.3548 92.7753H97.3C97.0248 94.0944 96.6896 95.4003 96.2955 96.6889L95.4794 99.3117L95.0303 100.761L94.577 102.228C94.495 102.492 94.4137 102.755 94.332 103.013L94.0886 103.781L93.8464 104.53L93.6055 105.261L93.3659 105.974C93.2865 106.208 93.2071 106.44 93.1279 106.668L93.0094 107.009ZM121.998 92.2806C121.437 92.3031 120.878 92.2071 120.356 91.9987C119.835 91.7904 119.363 91.4745 118.973 91.0717C118.583 90.6513 118.28 90.1582 118.082 89.6206C117.884 89.083 117.794 88.5116 117.817 87.9392C117.797 87.3725 117.897 86.808 118.111 86.2825C118.324 85.757 118.646 85.2824 119.055 84.8896C119.845 84.1323 120.896 83.7086 121.991 83.7065L122.108 83.7078C123.428 83.7078 124.464 84.1014 125.216 84.8893C125.596 85.2986 125.891 85.7787 126.084 86.302C126.277 86.8254 126.366 87.3817 126.344 87.9392C126.367 88.5139 126.274 89.0874 126.071 89.6255C125.868 90.1637 125.558 90.6556 125.161 91.072C124.76 91.4669 124.284 91.7776 123.761 91.9859C123.238 92.1942 122.679 92.2958 122.116 92.2848L121.998 92.2806ZM118.202 121.901V95.6329C118.202 95.3033 118.348 95.1382 118.642 95.1382H125.409C125.702 95.1382 125.849 95.303 125.849 95.6329V121.901C125.849 122.268 125.702 122.451 125.409 122.451H118.698C118.385 122.451 118.22 122.286 118.204 121.957L118.202 121.901Z" fill="#FF9A00"/>
</g>
<defs>
<clipPath id="clip0_14_163">
<rect width="82" height="80" fill="white" transform="translate(64 66)"/>
</clipPath>
</defs>
</svg>
