<svg width="211" height="211" viewBox="0 0 211 211" fill="none" xmlns="http://www.w3.org/2000/svg">
<g clip-path="url(#clip0_150_456)">
<path d="M149.2 0H61.7995L0 61.7995V149.2L61.7995 211H149.2L211 149.2V61.7995L149.2 0Z" fill="#329393"/>
<g clip-path="url(#clip1_150_456)">
<path d="M133.387 66H78.6133C71.0949 66 65 72.0889 65 79.6V132.272C65 139.783 71.0949 145.872 78.6133 145.872H133.387C140.905 145.872 147 139.783 147 132.272V79.6C147 72.0889 140.905 66 133.387 66Z" fill="#330000"/>
<path d="M104.736 113.933H92.0288L89.4432 121.956C89.408 122.102 89.3228 122.232 89.2023 122.322C89.0818 122.413 88.9335 122.458 88.783 122.451H82.347C81.9802 122.451 81.8518 122.249 81.962 121.846L92.9638 90.1923C93.0736 89.8627 93.1838 89.4873 93.2937 89.0659C93.4378 88.3325 93.5115 87.5875 93.5137 86.8403C93.5063 86.788 93.511 86.7347 93.5277 86.6847C93.5444 86.6346 93.5726 86.589 93.6099 86.5517C93.6473 86.5143 93.6928 86.4862 93.743 86.4695C93.7931 86.4527 93.8464 86.4479 93.8988 86.4553H102.645C102.901 86.4553 103.048 86.5472 103.085 86.7305L115.572 121.901C115.682 122.268 115.572 122.451 115.242 122.451H108.091C107.968 122.464 107.844 122.433 107.743 122.362C107.642 122.291 107.57 122.186 107.541 122.066L104.736 113.933ZM94.0089 107.009H102.7L102.576 106.6L102.377 105.953L102.236 105.499L102.009 104.783L101.528 103.277L101.104 101.941L100.005 98.463C99.7309 97.5983 99.4682 96.7302 99.2166 95.8589L99.0154 95.1517L98.7803 94.3155L98.4216 93.0195L98.3543 92.7753H98.2995C98.0243 94.0944 97.6891 95.4003 97.295 96.6889L96.4789 99.3117L96.0298 100.761L95.5766 102.228C95.4946 102.492 95.4132 102.755 95.3315 103.013L95.0881 103.781L94.8459 104.53L94.605 105.261L94.3655 105.974C94.286 106.208 94.2066 106.44 94.1275 106.668L94.0089 107.009ZM122.998 92.2806C122.437 92.3031 121.877 92.2071 121.356 91.9987C120.834 91.7904 120.363 91.4745 119.972 91.0717C119.583 90.6513 119.28 90.1582 119.082 89.6206C118.883 89.083 118.793 88.5116 118.817 87.9392C118.797 87.3725 118.897 86.808 119.11 86.2825C119.323 85.757 119.645 85.2824 120.055 84.8896C120.844 84.1323 121.896 83.7086 122.99 83.7065L123.107 83.7078C124.428 83.7078 125.464 84.1014 126.216 84.8893C126.595 85.2986 126.89 85.7787 127.084 86.302C127.277 86.8254 127.365 87.3817 127.343 87.9392C127.366 88.5139 127.273 89.0874 127.07 89.6255C126.867 90.1637 126.558 90.6556 126.161 91.072C125.76 91.4669 125.284 91.7776 124.761 91.9859C124.238 92.1942 123.678 92.2958 123.115 92.2848L122.998 92.2806ZM119.202 121.901V95.6329C119.202 95.3033 119.348 95.1382 119.642 95.1382H126.408C126.701 95.1382 126.848 95.303 126.848 95.6329V121.901C126.848 122.268 126.702 122.451 126.408 122.451H119.697C119.384 122.451 119.22 122.286 119.203 121.957L119.202 121.901Z" fill="#FF9A00"/>
</g>
</g>
<defs>
<clipPath id="clip0_150_456">
<rect width="211" height="211" fill="white"/>
</clipPath>
<clipPath id="clip1_150_456">
<rect width="82" height="80" fill="white" transform="translate(65 66)"/>
</clipPath>
</defs>
</svg>
