<svg width="211" height="210" viewBox="0 0 211 210" fill="none" xmlns="http://www.w3.org/2000/svg">
<rect x="210" y="210" width="210" height="210" transform="rotate(-180 210 210)" fill="#F59E43" fill-opacity="0.8"/>
<path d="M210 41H0V71.2053C0 71.2053 27.5 82 48.5 82C69.5 82 116 55.4403 146 55.4403C176 55.4403 210 71.2053 210 71.2053V41Z" fill="#F9F9F9"/>
<rect width="211" height="41" fill="#F9F9F9"/>
<g clip-path="url(#clip0_14_165)">
<path d="M132.387 65H77.6133C70.0949 65 64 71.0889 64 78.6V131.272C64 138.783 70.0949 144.872 77.6133 144.872H132.387C139.905 144.872 146 138.783 146 131.272V78.6C146 71.0889 139.905 65 132.387 65Z" fill="#49021F"/>
<path d="M93.7791 85.8951V120.901C93.7791 121.268 93.6141 121.451 93.2839 121.451H86.6278C86.3341 121.451 86.1873 121.268 86.188 120.901V85.8951C86.188 85.6023 86.353 85.4557 86.6829 85.4554H93.339C93.3949 85.4475 93.452 85.4519 93.5061 85.4682C93.5602 85.4845 93.6101 85.5124 93.6523 85.55C93.6945 85.5875 93.7281 85.6338 93.7506 85.6856C93.7731 85.7374 93.784 85.7935 93.7826 85.85L93.7791 85.8951ZM113.826 121.997L113.472 122C110.94 122.039 108.431 121.513 106.128 120.462C103.983 119.47 102.189 117.85 100.985 115.818C99.7683 113.799 99.1453 111.283 99.1158 108.269L99.1148 108.042C99.0942 105.52 99.7395 103.037 100.985 100.843C102.234 98.6683 104.056 96.8773 106.252 95.6644L106.431 95.5671C108.814 94.2484 111.693 93.5889 115.067 93.5889L115.138 93.5892L115.296 93.5927L115.475 93.5997L115.675 93.61L115.895 93.6237L116.135 93.6413L116.679 93.6858L116.827 93.6986V82.873C116.827 82.617 116.938 82.4881 117.157 82.4881H124.089C124.133 82.4816 124.179 82.4857 124.222 82.5C124.265 82.5143 124.304 82.5384 124.336 82.5704C124.368 82.6024 124.392 82.6414 124.407 82.6843C124.421 82.7272 124.425 82.7729 124.419 82.8177V115.296C124.421 115.975 124.448 116.653 124.501 117.329L124.553 118.038L124.599 118.697L124.639 119.308C124.645 119.422 124.618 119.535 124.559 119.633C124.5 119.731 124.413 119.81 124.309 119.857C122.521 120.602 120.658 121.155 118.753 121.506C117.127 121.805 115.479 121.97 113.826 121.997H113.826ZM116.827 115.186V100.183C116.53 100.103 116.227 100.048 115.92 100.019C115.545 99.9809 115.169 99.9626 114.792 99.9636C113.457 99.9505 112.138 100.252 110.942 100.843C109.776 101.422 108.781 102.293 108.054 103.371C107.302 104.47 106.926 105.917 106.926 107.712C106.899 108.91 107.095 110.103 107.504 111.229C107.836 112.137 108.361 112.962 109.044 113.647C109.697 114.278 110.488 114.748 111.354 115.021C112.269 115.317 113.225 115.466 114.187 115.461C114.7 115.461 115.177 115.443 115.617 115.406C115.969 115.379 116.317 115.322 116.658 115.233L116.827 115.186Z" fill="#FF3366"/>
</g>
<defs>
<clipPath id="clip0_14_165">
<rect width="82" height="80" fill="white" transform="translate(64 65)"/>
</clipPath>
</defs>
</svg>
