<svg width="211" height="211" viewBox="0 0 211 211" fill="none" xmlns="http://www.w3.org/2000/svg">
<path d="M149.2 0H61.7995L0 61.7995V149.2L61.7995 211H149.2L211 149.2V61.7995L149.2 0Z" fill="#F6B067"/>
<g clip-path="url(#clip0_150_480)">
<path d="M133.387 66H78.6133C71.0949 66 65 72.0889 65 79.6V132.272C65 139.783 71.0949 145.872 78.6133 145.872H133.387C140.905 145.872 147 139.783 147 132.272V79.6C147 72.0889 140.905 66 133.387 66Z" fill="#49021F"/>
<path d="M94.7791 86.8951V121.901C94.7791 122.268 94.6141 122.451 94.2839 122.451H87.6278C87.3341 122.451 87.1873 122.268 87.188 121.901V86.8951C87.188 86.6023 87.353 86.4557 87.6829 86.4554H94.339C94.3949 86.4475 94.452 86.4519 94.5061 86.4682C94.5602 86.4845 94.6101 86.5124 94.6523 86.55C94.6945 86.5875 94.7281 86.6338 94.7506 86.6856C94.7731 86.7374 94.784 86.7935 94.7826 86.85L94.7791 86.8951ZM114.826 122.997L114.472 123C111.94 123.039 109.431 122.513 107.128 121.462C104.983 120.47 103.189 118.85 101.985 116.818C100.768 114.799 100.145 112.283 100.116 109.269L100.115 109.042C100.094 106.52 100.739 104.037 101.985 101.843C103.234 99.6683 105.056 97.8773 107.252 96.6644L107.431 96.5671C109.814 95.2484 112.693 94.5889 116.067 94.5889L116.138 94.5892L116.296 94.5927L116.475 94.5997L116.675 94.61L116.895 94.6237L117.135 94.6413L117.679 94.6858L117.827 94.6986V83.873C117.827 83.617 117.938 83.4881 118.157 83.4881H125.089C125.133 83.4816 125.179 83.4857 125.222 83.5C125.265 83.5143 125.304 83.5384 125.336 83.5704C125.368 83.6024 125.392 83.6414 125.407 83.6843C125.421 83.7272 125.425 83.7729 125.419 83.8177V116.296C125.421 116.975 125.448 117.653 125.501 118.329L125.553 119.038L125.599 119.697L125.639 120.308C125.645 120.422 125.618 120.535 125.559 120.633C125.5 120.731 125.413 120.81 125.309 120.857C123.521 121.602 121.658 122.155 119.753 122.506C118.127 122.805 116.479 122.97 114.826 122.997H114.826ZM117.827 116.186V101.183C117.53 101.103 117.227 101.048 116.92 101.019C116.545 100.981 116.169 100.963 115.792 100.964C114.457 100.95 113.138 101.252 111.942 101.843C110.776 102.422 109.781 103.293 109.054 104.371C108.302 105.47 107.926 106.917 107.926 108.712C107.899 109.91 108.095 111.103 108.504 112.229C108.836 113.137 109.361 113.962 110.044 114.647C110.697 115.278 111.488 115.748 112.354 116.021C113.269 116.317 114.225 116.466 115.187 116.461C115.7 116.461 116.177 116.443 116.617 116.406C116.969 116.379 117.317 116.322 117.658 116.233L117.827 116.186Z" fill="#FF3366"/>
</g>
<defs>
<clipPath id="clip0_150_480">
<rect width="82" height="80" fill="white" transform="translate(65 66)"/>
</clipPath>
</defs>
</svg>
