<svg width="211" height="211" viewBox="0 0 211 211" fill="none" xmlns="http://www.w3.org/2000/svg">
<path d="M149.2 0H61.7995L0 61.7995V149.2L61.7995 211H149.2L211 149.2V61.7995L149.2 0Z" fill="#326479"/>
<g clip-path="url(#clip0_150_486)">
<path d="M80.1078 133.668L75 71.1169L136 71.2426L130.599 133.668L105.73 140.883L80.1078 133.668Z" fill="#E9CA32"/>
<path d="M105.73 134.842V77.0741L130.851 77.1579L126.371 128.843L105.73 134.842Z" fill="#FFDE25"/>
<path d="M103.041 83.9332H96.3995V122.382L91.2342 121.396V116.221L85.085 115.235V126.819L103.041 131.502V83.9332ZM108.022 83.9332H126.408L125.178 91.3026H115.041V103.396H125.178L123.948 127.804L108.022 131.502V123.861L118.783 120.164L119.404 110.059L108.022 111.71V83.9332Z" fill="white"/>
</g>
<defs>
<clipPath id="clip0_150_486">
<rect width="61" height="70" fill="white" transform="translate(75 71)"/>
</clipPath>
</defs>
</svg>
