<svg width="212" height="211" viewBox="0 0 212 211" fill="none" xmlns="http://www.w3.org/2000/svg">
<rect x="211" y="211" width="210" height="210" transform="rotate(-180 211 211)" fill="#003F59" fill-opacity="0.8"/>
<path d="M212 158H0V188.205C0 188.205 27.7619 199 48.9619 199C70.1619 199 117.105 172.44 147.39 172.44C177.676 172.44 212 188.205 212 188.205V158Z" fill="#F9F9F9"/>
<rect width="211" height="158" fill="#F9F9F9"/>
<g clip-path="url(#clip0_14_168)">
<path d="M80.1078 133.668L75 71.1169L136 71.2426L130.599 133.668L105.73 140.883L80.1078 133.668Z" fill="#E9CA32"/>
<path d="M105.73 134.842V77.0741L130.85 77.1579L126.371 128.843L105.73 134.842Z" fill="#FFDE25"/>
<path d="M103.04 83.9332H96.3992V122.382L91.2339 121.396V116.221L85.0847 115.235V126.819L103.04 131.502V83.9332ZM108.022 83.9332H126.407L125.177 91.3026H115.041V103.396H125.177L123.948 127.804L108.022 131.502V123.861L118.782 120.164L119.404 110.059L108.022 111.71V83.9332Z" fill="white"/>
</g>
<defs>
<clipPath id="clip0_14_168">
<rect width="61" height="70" fill="white" transform="translate(75 71)"/>
</clipPath>
</defs>
</svg>
