<svg width="49" height="51" viewBox="0 0 49 51" fill="none" xmlns="http://www.w3.org/2000/svg">
<path fill-rule="evenodd" clip-rule="evenodd" d="M41.7692 0.0335473C39.4003 0.360533 37.4532 2.10265 36.8125 4.46838C36.6893 4.92346 36.6698 5.14027 36.6726 6.02368C36.6753 6.87598 36.6988 7.1346 36.811 7.54787C36.9737 8.1471 37.4785 9.1935 37.8058 9.60976C37.9364 9.77593 38.0638 9.94595 38.0889 9.98751C38.1176 10.0351 37.7141 10.5426 37.0008 11.3562C36.3773 12.0674 35.8578 12.6614 35.8465 12.6763C35.8351 12.6911 34.5735 11.4402 33.0429 9.89625C30.3997 7.23015 30.2418 7.08278 29.8975 6.95991C29.5366 6.83119 29.4995 6.83069 21.4989 6.84705L13.4628 6.86354L13.0834 7.0694C12.7639 7.24272 11.8434 8.14859 7.25369 12.806C3.47245 16.643 1.74651 18.4363 1.61767 18.662C1.51365 18.8441 1.40111 19.1667 1.36191 19.3954C1.31183 19.6875 1.29752 22.0341 1.31171 27.6423L1.33149 35.481L1.53007 35.9003C1.70968 36.2793 1.98963 36.5852 4.45403 39.0947C5.95296 40.6211 7.17941 41.8904 7.17941 41.9154C7.17941 41.9404 6.74144 42.416 6.20617 42.9724L5.23286 43.9839L4.76571 43.7592C2.8252 42.8259 0.48846 43.9747 0.0521054 46.0766C-0.0522861 46.5792 0.00681518 47.5328 0.170246 47.9832C0.744213 49.565 2.38723 50.4721 4.05021 50.1254C5.2086 49.8838 6.24318 48.8704 6.55555 47.6713C6.74897 46.9287 6.64439 45.9422 6.30017 45.2631L6.14557 44.958L6.44033 44.6365C6.60246 44.4597 7.05449 43.9861 7.44481 43.5839L8.15446 42.8526L10.4444 45.1723C12.8743 47.634 13.0256 47.7598 13.7117 47.8899C13.9815 47.941 16.2321 47.9555 21.8303 47.942L29.5757 47.9234L29.9883 47.7279C30.3642 47.5498 30.6189 47.3118 32.8516 45.0528C34.1996 43.689 35.5067 42.3589 35.7565 42.097L36.2106 41.6209L36.6075 41.9214C37.7207 42.7639 39.0942 43.2823 40.5511 43.4097C42.9104 43.616 45.1547 42.7653 46.8157 41.0352C49.8398 37.8852 49.7066 32.7587 46.5229 29.7637C45.305 28.618 43.8917 27.9522 42.158 27.7075L41.8625 27.6658V23.5749C41.8625 19.1755 41.8603 19.1413 41.5357 18.5905C41.4652 18.4707 40.6911 17.6449 39.8156 16.7552C38.9402 15.8656 37.8924 14.799 37.4873 14.3851L36.7508 13.6324L37.9149 12.301C38.5552 11.5687 39.0871 10.9602 39.097 10.9488C39.1068 10.9374 39.3043 11.0423 39.5359 11.182C40.0777 11.5088 40.7646 11.7722 41.4224 11.9055C42.1901 12.061 43.441 12.0066 44.1819 11.7853C46.204 11.1814 47.7233 9.62152 48.2825 7.57481C48.4077 7.11681 48.4254 6.91188 48.4223 5.96147C48.419 4.95718 48.4055 4.82934 48.2479 4.31285C47.789 2.80882 46.8696 1.60322 45.5931 0.831539C45.0466 0.501194 44.1025 0.154052 43.48 0.0546371C43.0892 -0.00776137 42.1523 -0.0193328 41.7692 0.0335473ZM29.3122 8.1512C29.5234 8.21447 30.3734 9.0496 34.9496 13.6907C37.9134 16.6964 40.3874 19.245 40.4472 19.3543C40.5477 19.5377 40.5561 19.8633 40.5561 23.6131C40.5561 25.8705 40.5321 27.6734 40.502 27.6734C40.4723 27.6734 40.2086 27.7152 39.9159 27.7662C37.0438 28.267 34.6905 30.3379 33.8121 33.1374C33.5672 33.9178 33.4639 34.6306 33.4639 35.5404C33.4639 37.3 33.9513 38.848 34.9385 40.2239L35.2724 40.6893L34.9775 41.0091C33.9527 42.1207 29.6193 46.4379 29.4331 46.5329C29.2169 46.6431 28.8807 46.648 21.5974 46.648C15.3053 46.648 13.9524 46.6333 13.7842 46.5631C13.5064 46.447 2.86265 35.6519 2.71732 35.3388C2.61766 35.124 2.61001 34.5608 2.60845 27.3566L2.60684 19.6055L2.74681 19.3532C2.95989 18.9692 13.4666 8.3374 13.7739 8.19487C14.0119 8.08445 14.3499 8.07935 21.5431 8.07804C27.2077 8.07698 29.1249 8.09509 29.3122 8.1512ZM40.5561 31.7503C40.5561 34.5124 40.54 35.18 40.4694 35.343C40.4218 35.4531 39.3488 36.5927 38.085 37.8754L35.7872 40.2075L35.49 39.8039C34.5103 38.4739 33.9799 36.5461 34.1435 34.9105C34.3949 32.399 35.8538 30.2245 38.0361 29.1084C38.7407 28.7481 39.8882 28.3936 40.4472 28.3636C40.5496 28.3581 40.5561 28.5586 40.5561 31.7503ZM43.0365 28.5796C46.4644 29.4761 48.7621 32.9749 48.2659 36.5427C48.116 37.6199 47.548 39.0271 46.9365 39.8358C44.7994 42.6624 41.1284 43.5631 38.0654 42.0123C37.6834 41.8189 36.853 41.2717 36.7923 41.1734C36.7704 41.1381 37.7973 40.0464 39.0743 38.7476C41.0308 36.7575 41.4302 36.3207 41.6137 35.971L41.8314 35.556L41.8494 31.9502L41.8673 28.3443L42.1605 28.3857C42.3217 28.4085 42.7159 28.4957 43.0365 28.5796Z" fill="#3D4756"/>
<path fill-rule="evenodd" clip-rule="evenodd" d="M41.7692 0.0335473C39.4003 0.360533 37.4532 2.10265 36.8125 4.46838C36.6893 4.92346 36.6698 5.14027 36.6726 6.02368C36.6753 6.87598 36.6988 7.1346 36.811 7.54787C36.9737 8.1471 37.4785 9.1935 37.8058 9.60976C37.9364 9.77593 38.0638 9.94595 38.0889 9.98751C38.1176 10.0351 37.7141 10.5426 37.0008 11.3562C36.3773 12.0674 35.8578 12.6614 35.8465 12.6763C35.8351 12.6911 34.5735 11.4402 33.0429 9.89625C30.3997 7.23015 30.2418 7.08278 29.8975 6.95991C29.5366 6.83119 29.4995 6.83069 21.4989 6.84705L13.4628 6.86354L13.0834 7.0694C12.7639 7.24272 11.8434 8.14859 7.25369 12.806C3.47245 16.643 1.74651 18.4363 1.61767 18.662C1.51365 18.8441 1.40111 19.1667 1.36191 19.3954C1.31183 19.6875 1.29752 22.0341 1.31171 27.6423L1.33149 35.481L1.53007 35.9003C1.70968 36.2793 1.98963 36.5852 4.45403 39.0947C5.95296 40.6211 7.17941 41.8904 7.17941 41.9154C7.17941 41.9404 6.74144 42.416 6.20617 42.9724L5.23286 43.9839L4.76571 43.7592C2.8252 42.8259 0.48846 43.9747 0.0521054 46.0766C-0.0522861 46.5792 0.00681518 47.5328 0.170246 47.9832C0.744213 49.565 2.38723 50.4721 4.05021 50.1254C5.2086 49.8838 6.24318 48.8704 6.55555 47.6713C6.74897 46.9287 6.64439 45.9422 6.30017 45.2631L6.14557 44.958L6.44033 44.6365C6.60246 44.4597 7.05449 43.9861 7.44481 43.5839L8.15446 42.8526L10.4444 45.1723C12.8743 47.634 13.0256 47.7598 13.7117 47.8899C13.9815 47.941 16.2321 47.9555 21.8303 47.942L29.5757 47.9234L29.9883 47.7279C30.3642 47.5498 30.6189 47.3118 32.8516 45.0528C34.1996 43.689 35.5067 42.3589 35.7565 42.097L36.2106 41.6209L36.6075 41.9214C37.7207 42.7639 39.0942 43.2823 40.5511 43.4097C42.9104 43.616 45.1547 42.7653 46.8157 41.0352C49.8398 37.8852 49.7066 32.7587 46.5229 29.7637C45.305 28.618 43.8917 27.9522 42.158 27.7075L41.8625 27.6658V23.5692C41.8625 19.7685 41.8543 19.446 41.7482 19.1053C41.6854 18.9034 41.5664 18.6391 41.4838 18.518C41.4013 18.3969 40.2973 17.2441 39.0306 15.9562C37.7638 14.6682 36.7427 13.6072 36.7614 13.5984C36.7867 13.5865 38.1641 12.0215 39.0667 10.9791C39.0917 10.9502 39.3023 11.0411 39.5346 11.1812C40.0776 11.5087 40.7641 11.7721 41.4224 11.9055C42.1901 12.061 43.441 12.0066 44.1819 11.7853C46.204 11.1814 47.7233 9.62152 48.2825 7.57481C48.4077 7.11681 48.4254 6.91188 48.4223 5.96147C48.419 4.95718 48.4055 4.82934 48.2479 4.31285C47.789 2.80882 46.8696 1.60322 45.5931 0.831539C45.0466 0.501194 44.1025 0.154052 43.48 0.0546371C43.0892 -0.00776137 42.1523 -0.0193328 41.7692 0.0335473ZM29.3122 8.1512C29.5234 8.21447 30.3734 9.0496 34.9496 13.6907C37.9134 16.6964 40.3874 19.245 40.4472 19.3543C40.5477 19.5377 40.5561 19.8633 40.5561 23.6131C40.5561 25.8705 40.5321 27.6734 40.502 27.6734C40.4723 27.6734 40.2086 27.7152 39.9159 27.7662C37.0438 28.267 34.6905 30.3379 33.8121 33.1374C33.5672 33.9178 33.4639 34.6306 33.4639 35.5404C33.4639 37.3 33.9513 38.848 34.9385 40.2239L35.2724 40.6893L34.9775 41.0091C33.9527 42.1207 29.6193 46.4379 29.4331 46.5329C29.2169 46.6431 28.8807 46.648 21.5974 46.648C15.3053 46.648 13.9524 46.6333 13.7842 46.5631C13.5064 46.447 2.86265 35.6519 2.71732 35.3388C2.61766 35.124 2.61001 34.5608 2.60845 27.3566L2.60684 19.6055L2.74681 19.3532C2.95989 18.9692 13.4666 8.3374 13.7739 8.19487C14.0119 8.08445 14.3499 8.07935 21.5431 8.07804C27.2077 8.07698 29.1249 8.09509 29.3122 8.1512ZM40.9461 28.3363C40.904 28.3534 40.82 28.3544 40.7594 28.3386C40.6989 28.3228 40.7334 28.3089 40.836 28.3077C40.9387 28.3064 40.9882 28.3193 40.9461 28.3363ZM41.6926 28.3363C41.6505 28.3534 41.5665 28.3544 41.506 28.3386C41.4455 28.3228 41.4799 28.3089 41.5826 28.3077C41.6852 28.3064 41.7347 28.3193 41.6926 28.3363ZM40.5533 31.7638C40.5512 34.2786 40.5308 35.215 40.4755 35.3421C40.4343 35.4367 39.362 36.5716 38.0926 37.8642L35.7846 40.2141L35.4895 39.8072C34.5027 38.4466 33.98 36.545 34.1435 34.9105C34.3949 32.399 35.8538 30.2245 38.0361 29.1084C38.7407 28.7481 39.8882 28.3936 40.4472 28.3636C40.5497 28.3581 40.5559 28.5582 40.5533 31.7638ZM43.0365 28.5796C46.4644 29.4761 48.7621 32.9749 48.2659 36.5427C48.116 37.6199 47.548 39.0271 46.9365 39.8358C44.7994 42.6624 41.1284 43.5631 38.0654 42.0123C37.6834 41.8189 36.853 41.2717 36.7923 41.1734C36.7704 41.1381 37.7973 40.0464 39.0743 38.7476C41.0308 36.7575 41.4302 36.3207 41.6137 35.971L41.8314 35.556L41.8494 31.9502L41.8673 28.3443L42.1605 28.3857C42.3217 28.4085 42.7159 28.4957 43.0365 28.5796ZM36.2635 40.7068C36.4493 40.895 36.5874 41.049 36.5703 41.049C36.5532 41.049 36.3871 40.895 36.2012 40.7068C36.0154 40.5186 35.8773 40.3646 35.8944 40.3646C35.9115 40.3646 36.0776 40.5186 36.2635 40.7068ZM35.7969 41.1734C35.9305 41.3103 36.0259 41.4222 36.0088 41.4222C35.9917 41.4222 35.8683 41.3103 35.7347 41.1734C35.601 41.0365 35.5057 40.9245 35.5228 40.9245C35.5399 40.9245 35.6632 41.0365 35.7969 41.1734Z" fill="#093F5A"/>
<path fill-rule="evenodd" clip-rule="evenodd" d="M41.7692 0.0335473C39.4003 0.360533 37.4532 2.10265 36.8125 4.46838C36.6893 4.92346 36.6698 5.14027 36.6726 6.02368C36.6753 6.87598 36.6988 7.1346 36.811 7.54787C36.9737 8.1471 37.4785 9.1935 37.8058 9.60976C37.9364 9.77593 38.0637 9.9457 38.0886 9.98707C38.1169 10.034 37.7017 10.5537 36.981 11.3732C36.3468 12.0943 35.828 12.7051 35.828 12.7306C35.828 12.802 36.6629 13.614 36.7316 13.6096C36.7799 13.6065 38.0061 12.2297 38.948 11.1209L39.1128 10.9268L39.5349 11.1814C40.0777 11.5088 40.7642 11.7721 41.4224 11.9055C42.1901 12.061 43.441 12.0066 44.1819 11.7853C46.204 11.1814 47.7233 9.62152 48.2825 7.57481C48.4077 7.11681 48.4254 6.91188 48.4223 5.96147C48.419 4.95718 48.4055 4.82934 48.2479 4.31285C47.789 2.80882 46.8696 1.60322 45.5931 0.831539C45.0466 0.501194 44.1025 0.154052 43.48 0.0546371C43.0892 -0.00776137 42.1523 -0.0193328 41.7692 0.0335473ZM39.8669 27.77C37.026 28.2844 34.6832 30.3613 33.8121 33.1374C33.5672 33.9178 33.4639 34.6306 33.4639 35.5404C33.4639 37.8571 34.2251 39.6448 35.9028 41.2682C36.9803 42.3109 37.9356 42.8556 39.2885 43.1988C42.0295 43.8941 44.8491 43.0837 46.8157 41.0352C49.8398 37.8852 49.7066 32.7587 46.5229 29.7637C45.4001 28.7074 44.051 28.0318 42.5498 27.7739C41.8401 27.652 40.5291 27.65 39.8669 27.77ZM42.1425 28.3878C43.735 28.6487 44.9565 29.241 46.0563 30.2855C48.0392 32.1687 48.7962 34.9359 48.0458 37.5581C47.8556 38.2227 47.3115 39.3399 46.9365 39.8358C45.6853 41.4908 43.8923 42.5168 41.8678 42.7364C39.9521 42.9442 37.8727 42.2217 36.3152 40.8071C35.8761 40.4085 35.2431 39.4989 34.8598 38.716C33.4954 35.9291 34.0404 32.6418 36.2322 30.4392C37.3161 29.3498 38.54 28.7122 40.1075 28.4199C40.8626 28.2791 41.4251 28.2702 42.1425 28.3878ZM6.2267 42.9517L5.23205 43.9836L4.77013 43.7613C3.84336 43.3156 2.801 43.3132 1.87112 43.7549C0.990883 44.1729 0.25137 45.1168 0.0521054 46.0766C-0.0522861 46.5792 0.00681518 47.5328 0.170246 47.9832C0.744213 49.565 2.38723 50.4721 4.05021 50.1254C5.2086 49.8838 6.24318 48.8704 6.55555 47.6713C6.74928 46.9274 6.64439 45.9423 6.29874 45.2603L6.14271 44.9523L6.38266 44.6959C6.51461 44.5549 6.96783 44.082 7.38981 43.6451C8.06836 42.9426 8.14767 42.8383 8.07626 42.7431C7.93404 42.5535 7.30931 41.9199 7.26451 41.9199C7.24069 41.9199 6.77366 42.3842 6.2267 42.9517Z" fill="#0E7A7B"/>
<path fill-rule="evenodd" clip-rule="evenodd" d="M41.7692 0.0335473C39.4003 0.360533 37.4532 2.10265 36.8125 4.46838C36.6893 4.92346 36.6698 5.14027 36.6726 6.02368C36.6753 6.87598 36.6988 7.1346 36.811 7.54787C36.9737 8.1471 37.4785 9.1935 37.8058 9.60976C37.9364 9.77593 38.0637 9.9457 38.0886 9.98707C38.1169 10.034 37.7017 10.5537 36.981 11.3732C36.3468 12.0943 35.828 12.7051 35.828 12.7306C35.828 12.802 36.6629 13.614 36.7316 13.6096C36.7799 13.6065 38.0061 12.2297 38.948 11.1209L39.1128 10.9268L39.5349 11.1814C40.0777 11.5088 40.7642 11.7721 41.4224 11.9055C42.1901 12.061 43.441 12.0066 44.1819 11.7853C46.204 11.1814 47.7233 9.62152 48.2825 7.57481C48.4077 7.11681 48.4254 6.91188 48.4223 5.96147C48.419 4.95718 48.4055 4.82934 48.2479 4.31285C47.789 2.80882 46.8696 1.60322 45.5931 0.831539C45.0466 0.501194 44.1025 0.154052 43.48 0.0546371C43.0892 -0.00776137 42.1523 -0.0193328 41.7692 0.0335473ZM39.8669 27.77C37.026 28.2844 34.6832 30.3613 33.8121 33.1374C33.5672 33.9178 33.4639 34.6306 33.4639 35.5404C33.4639 37.8571 34.2251 39.6448 35.9028 41.2682C36.9803 42.3109 37.9356 42.8556 39.2885 43.1988C42.0295 43.8941 44.8491 43.0837 46.8157 41.0352C49.8398 37.8852 49.7066 32.7587 46.5229 29.7637C45.4001 28.7074 44.051 28.0318 42.5498 27.7739C41.8401 27.652 40.5291 27.65 39.8669 27.77ZM42.1425 28.3878C43.735 28.6487 44.9565 29.241 46.0563 30.2855C48.0392 32.1687 48.7962 34.9359 48.0458 37.5581C47.8556 38.2227 47.3115 39.3399 46.9365 39.8358C45.6853 41.4908 43.8923 42.5168 41.8678 42.7364C39.9521 42.9442 37.8727 42.2217 36.3152 40.8071C35.8761 40.4085 35.2431 39.4989 34.8598 38.716C33.4954 35.9291 34.0404 32.6418 36.2322 30.4392C37.3161 29.3498 38.54 28.7122 40.1075 28.4199C40.8626 28.2791 41.4251 28.2702 42.1425 28.3878Z" fill="#F59D35"/>
<path fill-rule="evenodd" clip-rule="evenodd" d="M36.2324 13.1781C36.47 13.4176 36.6785 13.6136 36.6956 13.6136C36.7127 13.6136 36.5322 13.4176 36.2946 13.1781C36.0569 12.9386 35.8484 12.7426 35.8313 12.7426C35.8142 12.7426 35.9947 12.9386 36.2324 13.1781ZM39.8669 27.77C37.026 28.2844 34.6832 30.3613 33.8121 33.1374C33.5672 33.9178 33.4639 34.6307 33.4639 35.5404C33.4639 37.8571 34.2251 39.6448 35.9028 41.2682C36.9803 42.3109 37.9356 42.8556 39.2885 43.1988C42.0295 43.8941 44.8491 43.0837 46.8157 41.0352C49.8398 37.8852 49.7066 32.7587 46.5229 29.7637C45.4001 28.7074 44.051 28.0318 42.5498 27.7739C41.8401 27.652 40.5291 27.65 39.8669 27.77ZM42.1425 28.3878C43.735 28.6487 44.9565 29.2411 46.0563 30.2855C48.0392 32.1687 48.7962 34.9359 48.0458 37.5582C47.8556 38.2227 47.3115 39.3399 46.9365 39.8359C45.6853 41.4908 43.8923 42.5168 41.8678 42.7364C39.9521 42.9442 37.8727 42.2217 36.3152 40.8072C35.8761 40.4085 35.2431 39.4989 34.8598 38.716C33.4954 35.9291 34.0404 32.6418 36.2322 30.4392C37.3161 29.3499 38.54 28.7122 40.1075 28.4199C40.8626 28.2791 41.4251 28.2702 42.1425 28.3878Z" fill="#CA8848"/>
<path fill-rule="evenodd" clip-rule="evenodd" d="M35.9524 12.8981C36.0328 12.9837 36.1125 13.0536 36.1296 13.0536C36.1468 13.0536 36.095 12.9837 36.0146 12.8981C35.9342 12.8126 35.8545 12.7426 35.8374 12.7426C35.8203 12.7426 35.872 12.8126 35.9524 12.8981ZM39.8669 27.77C37.026 28.2844 34.6832 30.3613 33.8121 33.1374C33.5672 33.9178 33.4639 34.6307 33.4639 35.5404C33.4639 37.8571 34.2251 39.6448 35.9028 41.2682C36.9803 42.3109 37.9356 42.8556 39.2885 43.1988C42.0295 43.8941 44.8491 43.0837 46.8157 41.0352C49.8398 37.8852 49.7066 32.7587 46.5229 29.7637C45.4001 28.7074 44.051 28.0318 42.5498 27.7739C41.8401 27.652 40.5291 27.65 39.8669 27.77ZM42.1425 28.3878C43.735 28.6487 44.9565 29.2411 46.0563 30.2855C48.0392 32.1687 48.7962 34.9359 48.0458 37.5582C47.8556 38.2227 47.3115 39.3399 46.9365 39.8359C45.6853 41.4908 43.8923 42.5168 41.8678 42.7364C39.9521 42.9442 37.8727 42.2217 36.3152 40.8072C35.8761 40.4085 35.2431 39.4989 34.8598 38.716C33.4954 35.9291 34.0404 32.6418 36.2322 30.4392C37.3161 29.3499 38.54 28.7122 40.1075 28.4199C40.8626 28.2791 41.4251 28.2702 42.1425 28.3878Z" fill="#DE670E"/>
<path fill-rule="evenodd" clip-rule="evenodd" d="M35.9525 12.8981C36.0328 12.9837 36.1126 13.0536 36.1297 13.0536C36.1468 13.0536 36.095 12.9837 36.0147 12.8981C35.9343 12.8126 35.8545 12.7426 35.8374 12.7426C35.8203 12.7426 35.8721 12.8126 35.9525 12.8981ZM40.6658 27.7174C40.7431 27.7323 40.8551 27.7317 40.9146 27.7162C40.9741 27.7006 40.9107 27.6884 40.7739 27.6891C40.637 27.6898 40.5884 27.7025 40.6658 27.7174ZM41.5671 27.7163C41.6269 27.732 41.725 27.732 41.7848 27.7163C41.8447 27.7007 41.7957 27.6879 41.6759 27.6879C41.5562 27.6879 41.5072 27.7007 41.5671 27.7163ZM35.4237 40.8001C35.4856 40.8686 35.5503 40.9246 35.5674 40.9246C35.5845 40.9246 35.5478 40.8686 35.4859 40.8001C35.424 40.7317 35.3593 40.6757 35.3422 40.6757C35.325 40.6757 35.3618 40.7317 35.4237 40.8001ZM36.108 41.4845C36.1699 41.5529 36.2346 41.6089 36.2517 41.6089C36.2688 41.6089 36.2321 41.5529 36.1702 41.4845C36.1083 41.416 36.0436 41.36 36.0265 41.36C36.0094 41.36 36.0461 41.416 36.108 41.4845Z" fill="#9F7453"/>
<path fill-rule="evenodd" clip-rule="evenodd" d="M40.6658 27.7174C40.7431 27.7323 40.8551 27.7317 40.9146 27.7161C40.9741 27.7006 40.9107 27.6884 40.7739 27.6891C40.637 27.6898 40.5884 27.7025 40.6658 27.7174ZM41.5671 27.7163C41.6269 27.7319 41.725 27.7319 41.7848 27.7163C41.8447 27.7007 41.7957 27.6878 41.6759 27.6878C41.5562 27.6878 41.5072 27.7007 41.5671 27.7163ZM35.4237 40.8001C35.4856 40.8685 35.5503 40.9245 35.5674 40.9245C35.5845 40.9245 35.5478 40.8685 35.4859 40.8001C35.424 40.7317 35.3593 40.6757 35.3422 40.6757C35.325 40.6757 35.3618 40.7317 35.4237 40.8001ZM36.108 41.4844C36.1699 41.5529 36.2346 41.6089 36.2517 41.6089C36.2688 41.6089 36.2321 41.5529 36.1702 41.4844C36.1083 41.416 36.0436 41.36 36.0265 41.36C36.0094 41.36 36.0461 41.416 36.108 41.4844Z" fill="#AE5E33"/>
</svg>
