<svg width="210" height="211" viewBox="0 0 210 211" fill="none" xmlns="http://www.w3.org/2000/svg">
<rect y="1" width="210" height="210" fill="#DE611E" fill-opacity="0.8"/>
<path d="M210 25H0V55.2053C0 55.2053 27.5 66 48.5 66C69.5 66 116 39.4403 146 39.4403C176 39.4403 210 55.2053 210 55.2053V25Z" fill="#F9F9F9"/>
<rect width="210" height="38" fill="#F9F9F9"/>
<g clip-path="url(#clip0_14_162)">
<path d="M132.387 66H77.6133C70.0949 66 64 72.0889 64 79.6V132.272C64 139.783 70.0949 145.872 77.6133 145.872H132.387C139.905 145.872 146 139.783 146 132.272V79.6C146 72.0889 139.905 66 132.387 66Z" fill="#001E36"/>
<path d="M82.4641 122.011V86.895C82.4641 86.639 82.5743 86.5104 82.7944 86.5104L83.1425 86.5094L83.7377 86.503L84.5647 86.4867L87.3354 86.4281L90.3063 86.3731C91.3512 86.3552 92.3871 86.3456 93.414 86.3456C96.2007 86.3456 98.5476 86.6937 100.455 87.3897C102.176 87.9712 103.745 88.9286 105.048 90.1923C106.153 91.2878 107.007 92.6097 107.551 94.0669C108.066 95.4848 108.327 96.9822 108.322 98.4905C108.322 101.422 107.643 103.84 106.286 105.745C104.959 107.603 103.108 109.024 100.969 109.827L100.785 109.894C98.5518 110.726 96.0784 111.027 93.3656 111.046L92.9441 111.047L92.3185 111.044L92.003 111.039L91.6513 111.031L91.4393 111.023L91.3105 111.016L90.9937 111.004L90.6065 110.996L90.0235 110.992L89.8938 110.992V121.956C89.9034 122.023 89.8972 122.092 89.8758 122.156C89.8543 122.221 89.8181 122.279 89.77 122.327C89.722 122.375 89.6634 122.411 89.5989 122.433C89.5344 122.454 89.4658 122.46 89.3986 122.451H82.8494C82.5922 122.451 82.4641 122.305 82.4641 122.011ZM89.8941 93.1049V104.558C90.3331 104.594 90.7733 104.612 91.2138 104.613H93.0293C94.281 104.609 95.5254 104.423 96.7235 104.061L96.9624 103.986C98.0523 103.663 99.0262 103.033 99.768 102.172C100.457 101.36 100.814 100.241 100.839 98.815L100.841 98.6553C100.87 97.5923 100.593 96.5433 100.043 95.6329C99.4648 94.7525 98.6294 94.0712 97.6501 93.6819C96.3714 93.1854 95.0056 92.9518 93.6344 92.9952L92.9367 92.9971L92.4966 93.0009L92.0767 93.0064L91.4841 93.0179L91.0517 93.0301L90.8271 93.0384L90.527 93.0525L90.2714 93.0681L90.1257 93.0797L89.9998 93.0918L89.9444 93.0982L89.8941 93.1049ZM129.59 102.476C128.631 101.983 127.613 101.613 126.561 101.374L126.317 101.322C125.16 101.057 123.978 100.91 122.791 100.886L122.495 100.882C121.799 100.863 121.103 100.947 120.432 101.13C120.004 101.225 119.624 101.468 119.359 101.816C119.179 102.095 119.084 102.419 119.084 102.751C119.094 103.072 119.21 103.381 119.414 103.63C119.706 103.971 120.057 104.257 120.45 104.474L120.569 104.537C121.353 104.959 122.162 105.335 122.989 105.663C124.836 106.28 126.6 107.12 128.243 108.163C129.362 108.869 130.288 109.842 130.938 110.994C131.485 112.085 131.758 113.291 131.736 114.511C131.769 116.121 131.308 117.703 130.416 119.045C129.46 120.406 128.133 121.465 126.592 122.094C124.979 122.803 122.997 123.169 120.648 123.193L120.404 123.194C118.948 123.209 117.494 123.081 116.062 122.814L115.756 122.754C114.55 122.533 113.377 122.164 112.263 121.655C112.151 121.597 112.056 121.511 111.989 121.405C111.921 121.298 111.883 121.176 111.878 121.05V115.06C111.871 115.002 111.881 114.943 111.905 114.89C111.929 114.837 111.967 114.791 112.016 114.758C112.063 114.731 112.117 114.72 112.171 114.725C112.225 114.73 112.276 114.751 112.318 114.786C113.634 115.561 115.063 116.126 116.553 116.462C117.867 116.791 119.215 116.966 120.569 116.984C121.852 116.984 122.797 116.819 123.402 116.489C123.675 116.364 123.907 116.163 124.068 115.909C124.229 115.656 124.313 115.361 124.31 115.06C124.31 114.585 124.035 114.127 123.485 113.687C123.254 113.502 122.923 113.302 122.493 113.085L122.287 112.984L122.067 112.881L121.952 112.828L121.71 112.721C121.668 112.703 121.626 112.685 121.584 112.667L121.322 112.557L121.185 112.501L120.901 112.387L120.754 112.33L120.448 112.212L120.129 112.093C118.402 111.492 116.764 110.66 115.261 109.62C114.185 108.873 113.3 107.885 112.675 106.735C112.134 105.652 111.861 104.455 111.878 103.245C111.875 101.791 112.274 100.365 113.033 99.1235C113.898 97.7571 115.139 96.6691 116.608 95.9913C118.222 95.1859 120.239 94.7827 122.659 94.7821C124.077 94.7707 125.493 94.8718 126.895 95.0845C127.91 95.2131 128.902 95.4812 129.844 95.8813C129.995 95.9248 130.117 96.0365 130.174 96.1837C130.211 96.3177 130.229 96.4563 130.229 96.5958V102.146C130.237 102.277 130.174 102.403 130.064 102.476C129.99 102.512 129.909 102.531 129.827 102.531C129.745 102.531 129.664 102.512 129.59 102.476Z" fill="#31A8FF"/>
</g>
<defs>
<clipPath id="clip0_14_162">
<rect width="82" height="80" fill="white" transform="translate(64 66)"/>
</clipPath>
</defs>
</svg>
