<svg width="211" height="211" viewBox="0 0 211 211" fill="none" xmlns="http://www.w3.org/2000/svg">
<g clip-path="url(#clip0_150_452)">
<path d="M149.2 0H61.7995L0 61.7995V149.2L61.7995 211H149.2L211 149.2V61.7995L149.2 0Z" fill="#E37F4A"/>
<g clip-path="url(#clip1_150_452)">
<path d="M133.387 66H78.6133C71.0949 66 65 72.0889 65 79.6V132.272C65 139.783 71.0949 145.872 78.6133 145.872H133.387C140.905 145.872 147 139.783 147 132.272V79.6C147 72.0889 140.905 66 133.387 66Z" fill="#001E36"/>
<path d="M83.4639 122.011V86.895C83.4639 86.639 83.5741 86.5104 83.7941 86.5104L84.1423 86.5094L84.7374 86.503L85.5645 86.4867L88.3352 86.4281L91.3061 86.3731C92.3509 86.3552 93.3868 86.3456 94.4138 86.3456C97.2005 86.3456 99.5474 86.6937 101.455 87.3897C103.175 87.9712 104.745 88.9286 106.048 90.1923C107.153 91.2878 108.007 92.6097 108.551 94.0669C109.066 95.4848 109.326 96.9822 109.321 98.4905C109.321 101.422 108.643 103.84 107.286 105.745C105.959 107.603 104.108 109.024 101.969 109.827L101.785 109.894C99.5516 110.726 97.0781 111.027 94.3654 111.046L93.9439 111.047L93.3183 111.044L93.0028 111.039L92.6511 111.031L92.439 111.023L92.3103 111.016L91.9935 111.004L91.6062 110.996L91.0232 110.992L90.8935 110.992V121.956C90.9032 122.023 90.897 122.092 90.8755 122.156C90.854 122.221 90.8178 122.279 90.7698 122.327C90.7217 122.375 90.6631 122.411 90.5987 122.433C90.5342 122.454 90.4656 122.46 90.3983 122.451H83.8492C83.592 122.451 83.4639 122.305 83.4639 122.011ZM90.8938 93.1049V104.558C91.3329 104.594 91.7731 104.612 92.2135 104.613H94.0291C95.2808 104.609 96.5252 104.423 97.7232 104.061L97.9622 103.986C99.0521 103.663 100.026 103.033 100.768 102.172C101.457 101.36 101.814 100.241 101.839 98.815L101.841 98.6553C101.869 97.5923 101.593 96.5433 101.043 95.6329C100.465 94.7525 99.6291 94.0712 98.6499 93.6819C97.3712 93.1854 96.0053 92.9518 94.6341 92.9952L93.9365 92.9971L93.4964 93.0009L93.0764 93.0064L92.4839 93.0179L92.0514 93.0301L91.8269 93.0384L91.5268 93.0525L91.2712 93.0681L91.1254 93.0797L90.9995 93.0918L90.9441 93.0982L90.8938 93.1049ZM130.59 102.476C129.631 101.983 128.613 101.613 127.561 101.374L127.317 101.322C126.16 101.057 124.978 100.91 123.791 100.886L123.494 100.882C122.798 100.863 122.103 100.947 121.431 101.13C121.004 101.225 120.624 101.468 120.358 101.816C120.179 102.095 120.084 102.419 120.084 102.751C120.094 103.072 120.21 103.381 120.414 103.63C120.705 103.971 121.056 104.257 121.45 104.474L121.569 104.537C122.353 104.959 123.161 105.335 123.989 105.663C125.835 106.28 127.599 107.12 129.242 108.164C130.362 108.869 131.288 109.842 131.938 110.994C132.484 112.085 132.758 113.291 132.736 114.511C132.769 116.121 132.308 117.703 131.415 119.045C130.46 120.406 129.133 121.465 127.592 122.094C125.979 122.803 123.997 123.169 121.648 123.193L121.404 123.194C119.948 123.209 118.493 123.081 117.062 122.814L116.756 122.754C115.55 122.533 114.377 122.164 113.263 121.655C113.151 121.597 113.056 121.511 112.988 121.405C112.921 121.298 112.882 121.176 112.878 121.05V115.06C112.871 115.002 112.88 114.943 112.905 114.89C112.929 114.837 112.967 114.791 113.015 114.758C113.062 114.731 113.117 114.72 113.171 114.725C113.225 114.73 113.276 114.751 113.318 114.786C114.634 115.561 116.063 116.126 117.553 116.462C118.867 116.791 120.215 116.966 121.569 116.984C122.852 116.984 123.796 116.819 124.402 116.489C124.675 116.364 124.906 116.163 125.067 115.909C125.229 115.656 125.313 115.361 125.309 115.06C125.309 114.585 125.034 114.127 124.484 113.687C124.254 113.502 123.923 113.302 123.492 113.085L123.286 112.984L123.067 112.881L122.951 112.828L122.71 112.721C122.668 112.703 122.626 112.685 122.584 112.667L122.321 112.557L122.185 112.501L121.901 112.387L121.753 112.33L121.448 112.212L121.129 112.093C119.401 111.492 117.764 110.66 116.26 109.62C115.185 108.873 114.3 107.885 113.675 106.735C113.134 105.652 112.861 104.455 112.878 103.245C112.874 101.791 113.274 100.365 114.033 99.1235C114.897 97.7571 116.139 96.6691 117.608 95.9913C119.222 95.1859 121.238 94.7827 123.659 94.7821C125.077 94.7707 126.493 94.8718 127.895 95.0845C128.91 95.2131 129.902 95.4812 130.844 95.8813C130.995 95.9248 131.117 96.0365 131.173 96.1837C131.211 96.3177 131.229 96.4563 131.229 96.5958V102.146C131.237 102.277 131.173 102.403 131.064 102.476C130.99 102.512 130.909 102.531 130.827 102.531C130.745 102.531 130.664 102.512 130.59 102.476Z" fill="#31A8FF"/>
</g>
</g>
<defs>
<clipPath id="clip0_150_452">
<rect width="211" height="211" fill="white"/>
</clipPath>
<clipPath id="clip1_150_452">
<rect width="82" height="80" fill="white" transform="translate(65 66)"/>
</clipPath>
</defs>
</svg>
